<mxfile host="app.diagrams.net" agent="Mozilla/5.0 (Windows NT 10.0; Win64; x64) AppleWebKit/537.36 (KHTML, like Gecko) Chrome/127.0.0.0 Safari/537.36" version="24.7.6">
  <diagram name="Page-1" id="c4acf3e9-155e-7222-9cf6-157b1a14988f">
    <mxGraphModel dx="1050" dy="530" grid="1" gridSize="10" guides="1" tooltips="1" connect="1" arrows="1" fold="1" page="1" pageScale="1" pageWidth="850" pageHeight="1100" background="none" math="0" shadow="0">
      <root>
        <mxCell id="0" />
        <mxCell id="1" parent="0" />
        <mxCell id="5d2195bd80daf111-19" value="&lt;p style=&quot;margin:0px;margin-top:4px;text-align:center;&quot;&gt;&lt;i&gt;&amp;lt;&amp;lt;Carro&amp;gt;&amp;gt;&lt;/i&gt;&lt;br&gt;&lt;/p&gt;&lt;hr size=&quot;1&quot;&gt;&lt;p class=&quot;custom-cursor-default-hover&quot; style=&quot;margin:0px;margin-left:4px;&quot;&gt;- placa: String&amp;nbsp;&lt;/p&gt;&lt;p class=&quot;custom-cursor-default-hover&quot; style=&quot;margin:0px;margin-left:4px;&quot;&gt;- marca: String&lt;/p&gt;&lt;p class=&quot;custom-cursor-default-hover&quot; style=&quot;margin:0px;margin-left:4px;&quot;&gt;- modelo: String&lt;br&gt;&lt;/p&gt;&lt;hr size=&quot;1&quot;&gt;&lt;p style=&quot;text-align:justify;line-height:115%&quot; class=&quot;MsoNormal&quot;&gt;+Carro(placa:String, marca:String, modelo:String)&lt;/p&gt;&lt;p style=&quot;text-align:justify;line-height:115%&quot; class=&quot;MsoNormal&quot;&gt;+ getPlaca():String&lt;/p&gt;&lt;p style=&quot;text-align:justify;line-height:115%&quot; class=&quot;MsoNormal&quot;&gt;+ getMarca():String&lt;/p&gt;&lt;p style=&quot;text-align:justify;line-height:115%&quot; class=&quot;MsoNormal&quot;&gt;+ getModelo(): String&lt;/p&gt;" style="verticalAlign=top;align=left;overflow=fill;fontSize=12;fontFamily=Helvetica;html=1;rounded=0;shadow=0;comic=0;labelBackgroundColor=none;strokeWidth=1" parent="1" vertex="1">
          <mxGeometry x="80" y="120" width="280" height="200" as="geometry" />
        </mxCell>
        <mxCell id="5d2195bd80daf111-20" value="&lt;p style=&quot;margin:0px;margin-top:4px;text-align:center;&quot;&gt;&lt;i&gt;&amp;lt;&amp;lt;Parqueadero&amp;gt;&amp;gt;&lt;/i&gt;&lt;br&gt;&lt;/p&gt;&lt;hr size=&quot;1&quot;&gt;&lt;p style=&quot;text-align:justify;line-height:115%&quot; class=&quot;MsoNormal&quot;&gt;- parqueadero: Carro[][]&lt;/p&gt;&lt;p style=&quot;text-align:justify;line-height:115%&quot; class=&quot;MsoNormal&quot;&gt;- tarifaPorHora: double&lt;/p&gt;&lt;hr size=&quot;1&quot;&gt;&lt;p style=&quot;text-align:justify;line-height:115%&quot; class=&quot;MsoNormal&quot;&gt;+Parqueadero(tarifa:double) &lt;/p&gt;&lt;p style=&quot;text-align:justify;line-height:115%&quot; class=&quot;MsoNormal&quot;&gt;+parquearCarro(carro:Carro, fila:int, columna:int): boolean &lt;/p&gt;&lt;p style=&quot;text-align:justify;line-height:115%&quot; class=&quot;MsoNormal&quot;&gt;+cobrarPorTiempo(carro:Carro,horas:int):double&lt;/p&gt;&lt;p style=&quot;text-align:justify;line-height:115%&quot; class=&quot;MsoNormal&quot;&gt;+mostrarEstadoParqueadero():void&lt;/p&gt;" style="verticalAlign=top;align=left;overflow=fill;fontSize=12;fontFamily=Helvetica;html=1;rounded=0;shadow=0;comic=0;labelBackgroundColor=none;strokeWidth=1" parent="1" vertex="1">
          <mxGeometry x="80" y="400" width="320" height="200" as="geometry" />
        </mxCell>
      </root>
    </mxGraphModel>
  </diagram>
</mxfile>
